<?xml version="1.0" encoding="UTF-8" standalone="no"?>
<!-- Created with Inkscape (http://www.inkscape.org/) -->

<svg
   version="1.1"
   id="svg2"
   width="526"
   height="526"
   viewBox="0 0 526 526"
   sodipodi:docname="Logo France Floorball.svg"
   inkscape:version="1.4 (86a8ad7, 2024-10-11)"
   xmlns:inkscape="http://www.inkscape.org/namespaces/inkscape"
   xmlns:sodipodi="http://sodipodi.sourceforge.net/DTD/sodipodi-0.dtd"
   xmlns="http://www.w3.org/2000/svg"
   xmlns:svg="http://www.w3.org/2000/svg">
  <defs
     id="defs6">
    <clipPath
       clipPathUnits="userSpaceOnUse"
       id="clipPath16">
      <path
         d="M 0,500 H 500 V 0 H 0 Z"
         id="path14" />
    </clipPath>
  </defs>
  <sodipodi:namedview
     id="namedview4"
     pagecolor="#ffffff"
     bordercolor="#000000"
     borderopacity="0.25"
     inkscape:showpageshadow="2"
     inkscape:pageopacity="0.0"
     inkscape:pagecheckerboard="0"
     inkscape:deskcolor="#d1d1d1"
     inkscape:zoom="1.2105"
     inkscape:cx="333.33334"
     inkscape:cy="333.33334"
     inkscape:window-width="1920"
     inkscape:window-height="1009"
     inkscape:window-x="-8"
     inkscape:window-y="-8"
     inkscape:window-maximized="1"
     inkscape:current-layer="g8" />
  <g
     id="g8"
     inkscape:groupmode="layer"
     inkscape:label="Logo France Floorball"
     transform="matrix(1.3333333,0,0,-1.3333333,0,666.66667)">
    <g
       id="g10"
       transform="translate(-52.642638,52.749952)">
      <g
         id="g12"
         clip-path="url(#clipPath16)">
        <g
           id="g18"
           transform="translate(225.0477,167.7834)">
          <path
             d="m 0,0 v -24.287 c 0,-1.022 0.27,-1.793 0.781,-2.304 0.597,-0.598 1.58,-0.896 2.91,-0.887 2.516,0.02 3.692,1.032 3.692,3.191 v 7.719 h 5.58 c 1.879,0 2.756,0.926 2.756,2.892 v 2.891 H 7.383 v 5.05 h 6.419 c 1.889,0 2.766,0.906 2.766,2.863 V 0 Z"
             style="fill:#26356e;fill-opacity:1;fill-rule:nonzero;stroke:none"
             id="path20" />
        </g>
        <g
           id="g22"
           transform="translate(254.9445,155.5626)">
          <path
             d="M 0,0 H -2.882 V 7.45 H 0 C 3.325,7.45 4.019,5.426 4.019,3.73 4.019,2.024 3.325,0 0,0 m 10.168,-9.137 -4.135,5.648 0.473,0.26 c 2.698,1.523 4.009,3.971 4.009,7.479 0,1.928 -0.742,3.759 -2.197,5.455 -1.465,1.687 -3.248,2.516 -5.456,2.516 h -13.126 v -27.478 h 3.691 c 2.515,0 3.691,1.012 3.691,3.19 v 8.588 l 7.46,-10.207 c 0.993,-1.128 1.976,-1.735 2.891,-1.764 0.955,-0.048 1.851,0.299 2.728,1.012 0.858,0.704 1.291,1.456 1.33,2.313 0.038,0.858 -0.424,1.87 -1.359,2.988"
             style="fill:#e30613;fill-opacity:1;fill-rule:nonzero;stroke:none"
             id="path24" />
        </g>
        <g
           id="g26"
           transform="translate(278.9622,151.1002)">
          <path
             d="M 0,0 2.506,6.804 5.002,0 Z M 14.746,-4.906 6.024,14.1 C 5.243,15.835 4.086,16.683 2.487,16.683 H 0.096 l -9.83,-21.589 c -0.328,-0.703 -0.492,-1.426 -0.492,-2.159 0,-0.694 0.328,-1.513 0.983,-2.419 0.617,-0.877 1.639,-1.311 3.123,-1.311 1.426,0 2.429,0.839 3.074,2.555 l 0.916,2.457 H 7.132 L 8.057,-8.24 c 0.636,-1.716 1.658,-2.555 3.113,-2.555 1.514,0 2.535,0.425 3.133,1.292 0.626,0.906 0.944,1.725 0.944,2.419 0,0.733 -0.164,1.455 -0.501,2.178"
             style="fill:#e30613;fill-opacity:1;fill-rule:nonzero;stroke:none"
             id="path28" />
        </g>
        <g
           id="g30"
           transform="translate(317.8416,167.7834)">
          <path
             d="m 0,0 c -2.515,0 -3.682,-1.012 -3.682,-3.181 v -10.341 l -10.042,11.97 C -14.428,-0.492 -15.527,0 -17.127,0 h -0.057 l -3.692,-0.019 v -27.459 h 3.692 c 2.515,0 3.691,1.012 3.691,3.191 v 10.37 l 10.197,-12.125 c 0.809,-0.963 1.889,-1.436 3.296,-1.436 2.525,0 3.691,1.012 3.691,3.191 L 3.691,0 Z"
             style="fill:#e30613;fill-opacity:1;fill-rule:nonzero;stroke:none"
             id="path32" />
        </g>
        <g
           id="g34"
           transform="translate(346.9866,148.3631)">
          <path
             d="m 0,0 c -0.742,0 -1.985,-0.308 -3.672,-0.906 -1.812,-0.636 -3.152,-0.954 -4.087,-0.954 -5.021,0 -7.556,2.641 -7.556,7.835 0,5.205 2.535,7.836 7.556,7.836 0.935,0 2.265,-0.308 4.087,-0.954 1.687,-0.598 2.93,-0.896 3.672,-0.896 0.665,0 1.272,0.327 1.86,1.021 0.598,0.704 0.896,1.494 0.896,2.4 0,0.858 -0.732,1.899 -2.168,3.075 -1.475,1.195 -4.395,1.802 -8.693,1.802 -4.28,0 -7.827,-1.33 -10.525,-3.961 -2.699,-2.622 -4.067,-6.101 -4.067,-10.342 0,-4.241 1.378,-7.71 4.086,-10.322 2.718,-2.612 6.236,-3.942 10.448,-3.942 4.24,0 7.161,0.607 8.674,1.812 1.494,1.176 2.245,2.207 2.245,3.065 0,0.915 -0.298,1.696 -0.896,2.409 C 1.272,-0.337 0.665,0 0,0"
             style="fill:#e30613;fill-opacity:1;fill-rule:nonzero;stroke:none"
             id="path36" />
        </g>
        <g
           id="g38"
           transform="translate(366.6094,162.0489)">
          <path
             d="M 0,0 C 1.889,0 2.766,0.906 2.766,2.862 V 5.735 H -13.801 V -21.743 H 0 c 1.889,0 2.766,0.915 2.766,2.872 v 2.862 h -9.185 v 5.176 h 5.58 c 1.88,0 2.757,0.925 2.757,2.891 V -5.05 H -6.419 V 0 Z"
             style="fill:#e30613;fill-opacity:1;fill-rule:nonzero;stroke:none"
             id="path40" />
        </g>
        <g
           id="g42"
           transform="translate(225.0477,127.7283)">
          <path
             d="m 0,0 v -24.288 c 0,-1.021 0.27,-1.792 0.781,-2.303 0.597,-0.598 1.58,-0.858 2.91,-0.887 2.516,0.019 3.692,1.031 3.692,3.19 v 7.73 h 5.58 c 1.879,0 2.756,0.916 2.756,2.882 v 2.891 H 7.383 v 5.05 h 6.419 c 1.889,0 2.766,0.916 2.766,2.863 V 0 Z"
             style="fill:#26356e;fill-opacity:1;fill-rule:nonzero;stroke:none"
             id="path44" />
        </g>
        <g
           id="g46"
           transform="translate(252.0628,105.9851)">
          <path
             d="m 0,0 v 18.563 c 0,2.168 -1.176,3.18 -3.691,3.18 H -7.383 V -2.544 c 0,-2.179 1.176,-3.191 3.692,-3.191 H 7.007 c 0.915,0 2.139,0.299 2.139,2.873 V 0 Z"
             style="fill:#e30613;fill-opacity:1;fill-rule:nonzero;stroke:none"
             id="path48" />
        </g>
        <g
           id="g50"
           transform="translate(283.9643,108.6934)">
          <path
             d="m 0,0 c -1.359,-1.484 -3.181,-2.246 -5.417,-2.246 -2.226,0 -4.047,0.752 -5.416,2.227 -1.359,1.455 -2.043,3.334 -2.043,5.58 0,2.246 0.684,4.125 2.043,5.609 1.359,1.494 3.19,2.256 5.426,2.256 2.236,0 4.058,-0.752 5.417,-2.246 C 1.349,9.705 2.024,7.826 2.024,5.59 2.024,3.354 1.349,1.475 0,0 m 5.098,15.912 c -2.698,2.631 -6.235,3.961 -10.515,3.961 -4.279,0 -7.816,-1.33 -10.524,-3.961 -2.699,-2.621 -4.067,-6.101 -4.067,-10.341 0,-4.241 1.378,-7.711 4.086,-10.323 2.718,-2.611 6.236,-3.941 10.457,-3.941 4.212,0 7.749,1.33 10.496,3.941 2.737,2.612 4.125,6.082 4.125,10.323 0,4.24 -1.369,7.72 -4.058,10.341"
             style="fill:#e30613;fill-opacity:1;fill-rule:nonzero;stroke:none"
             id="path52" />
        </g>
        <g
           id="g54"
           transform="translate(315.5574,108.6934)">
          <path
             d="m 0,0 c -1.359,-1.484 -3.181,-2.246 -5.407,-2.246 -2.236,0 -4.057,0.752 -5.426,2.227 -1.359,1.455 -2.043,3.334 -2.043,5.58 0,2.246 0.684,4.125 2.043,5.609 1.369,1.494 3.2,2.256 5.436,2.256 2.236,0 4.057,-0.752 5.407,-2.246 C 1.349,9.705 2.034,7.826 2.034,5.59 2.034,3.354 1.349,1.475 0,0 m 5.098,15.912 c -2.689,2.631 -6.226,3.961 -10.505,3.961 -4.279,0 -7.826,-1.33 -10.524,-3.961 -2.699,-2.621 -4.068,-6.101 -4.068,-10.341 0,-4.241 1.369,-7.711 4.087,-10.323 2.718,-2.611 6.226,-3.941 10.447,-3.941 4.222,0 7.749,1.33 10.496,3.941 2.737,2.612 4.125,6.082 4.125,10.323 0,4.24 -1.359,7.72 -4.058,10.341"
             style="fill:#e30613;fill-opacity:1;fill-rule:nonzero;stroke:none"
             id="path56" />
        </g>
        <g
           id="g58"
           transform="translate(337.7343,115.5074)">
          <path
             d="M 0,0 H -2.882 V 7.45 H 0 C 3.325,7.45 4.019,5.426 4.019,3.73 4.019,2.024 3.325,0 0,0 m 10.158,-9.137 -4.125,5.648 0.473,0.26 c 2.698,1.523 4.009,3.971 4.009,7.489 0,1.918 -0.742,3.749 -2.207,5.445 -1.455,1.697 -3.239,2.516 -5.446,2.516 h -13.126 v -27.478 h 3.691 c 2.515,0 3.691,1.012 3.691,3.19 v 8.588 l 7.46,-10.207 c 0.983,-1.127 1.966,-1.735 2.891,-1.764 0.955,-0.048 1.851,0.299 2.728,1.012 0.858,0.704 1.291,1.456 1.33,2.314 0.029,0.857 -0.424,1.869 -1.369,2.987"
             style="fill:#e30613;fill-opacity:1;fill-rule:nonzero;stroke:none"
             id="path60" />
        </g>
        <g
           id="g62"
           transform="translate(362.2338,105.108)">
          <path
             d="m 0,0 h -3.017 v 7.113 h 2.93 C 2.236,7.113 3.47,5.879 3.47,3.556 3.47,1.224 2.265,0 0,0 m -3.017,17.849 h 2.68 c 2.072,0 3.219,-1.137 3.219,-3.219 0,-2.072 -1.118,-3.219 -3.142,-3.219 H -3.017 Z M 6.65,9.696 5.773,10.11 6.65,10.554 c 2.111,1.069 3.142,2.958 3.142,5.763 0,4.241 -2.621,6.303 -8.028,6.303 H -10.39 V -4.857 H 2.4 c 5.686,0 8.443,2.602 8.443,7.951 0,3.084 -1.369,5.243 -4.193,6.602"
             style="fill:#e30613;fill-opacity:1;fill-rule:nonzero;stroke:none"
             id="path64" />
        </g>
        <g
           id="g66"
           transform="translate(385.7407,111.045)">
          <path
             d="M 0,0 2.506,6.804 5.002,0 Z M 14.746,-4.906 6.024,14.1 C 5.243,15.835 4.086,16.683 2.487,16.683 H 0.096 l -9.83,-21.579 c -0.328,-0.713 -0.482,-1.436 -0.482,-2.159 0,-0.703 0.328,-1.523 0.973,-2.429 0.617,-0.877 1.639,-1.31 3.123,-1.31 1.426,0 2.429,0.838 3.074,2.554 l 0.916,2.467 H 7.132 L 8.057,-8.24 c 0.636,-1.716 1.658,-2.554 3.113,-2.554 1.513,0 2.535,0.424 3.133,1.291 0.626,0.906 0.944,1.725 0.944,2.419 0,0.733 -0.164,1.465 -0.501,2.178"
             style="fill:#e30613;fill-opacity:1;fill-rule:nonzero;stroke:none"
             id="path68" />
        </g>
        <g
           id="g70"
           transform="translate(411.1269,105.9851)">
          <path
             d="m 0,0 v 18.563 c 0,2.168 -1.176,3.18 -3.691,3.18 H -7.383 V -2.544 c 0,-2.179 1.176,-3.191 3.692,-3.191 H 7.007 c 0.915,0 2.13,0.299 2.13,2.873 V 0 Z"
             style="fill:#e30613;fill-opacity:1;fill-rule:nonzero;stroke:none"
             id="path72" />
        </g>
        <g
           id="g74"
           transform="translate(430.7112,105.9851)">
          <path
             d="m 0,0 v 18.563 c 0,2.168 -1.166,3.18 -3.682,3.18 H -7.373 V -2.544 c 0,-2.179 1.176,-3.191 3.691,-3.191 H 7.016 c 0.916,0 2.13,0.299 2.13,2.873 V 0 Z"
             style="fill:#e30613;fill-opacity:1;fill-rule:nonzero;stroke:none"
             id="path76" />
        </g>
        <g
           id="g78"
           transform="translate(160.4709,185.0707)">
          <path
             d="m 0,0 c 1.455,-2.58 3.113,-5.568 4.88,-8.884 -3.144,1.095 -5.021,1.971 -5.24,2.065 -1.861,0.876 -2.721,3.018 -2.048,4.911 0.047,0.141 0.093,0.266 0.156,0.391 0.422,0.923 1.158,1.58 2.018,1.939 0.391,0.172 0.797,0.282 1.22,0.313 C 0.657,0.485 0.329,0.25 0,0"
             style="fill:#e30613;fill-opacity:1;fill-rule:nonzero;stroke:none"
             id="path80" />
        </g>
        <g
           id="g82"
           transform="translate(143.4854,253.5038)">
          <path
             d="m 0,0 c 0.259,0 0.526,0.048 0.79,0.148 3.118,1.171 7.089,11.095 6.914,13.9 -0.225,3.587 -7.789,6.853 -10.101,7.768 -0.6,0.24 -1.283,0.01 -1.62,-0.54 l -6.429,-10.48 C -10.781,10.249 -10.678,9.541 -10.2,9.114 -8.258,7.376 -2.941,2.503 -1.666,0.847 -1.24,0.295 -0.641,0 0,0"
             style="fill:#26356e;fill-opacity:1;fill-rule:nonzero;stroke:none"
             id="path84" />
        </g>
        <g
           id="g86"
           transform="translate(130.1422,233.5102)">
          <path
             d="m 0,0 c 0.254,-0.293 0.62,-0.458 1.003,-0.458 0.039,0 0.08,0.001 0.12,0.005 0.425,0.038 0.805,0.279 1.023,0.647 L 9.52,12.673 C 9.811,13.166 9.753,13.79 9.377,14.22 L 1.625,23.107 C 1.339,23.435 0.911,23.597 0.48,23.553 0.048,23.506 -0.333,23.251 -0.541,22.869 L -7.537,10.012 C -7.801,9.524 -7.736,8.926 -7.374,8.508 Z"
             style="fill:#26356e;fill-opacity:1;fill-rule:nonzero;stroke:none"
             id="path88" />
        </g>
        <g
           id="g90"
           transform="translate(110.453,268.5144)">
          <path
             d="m 0,0 c -0.408,0.162 -0.87,0.109 -1.233,-0.138 -0.362,-0.248 -0.579,-0.658 -0.579,-1.097 v -11.534 c 0,-0.267 0.08,-0.526 0.23,-0.747 l 3.214,-4.726 c 0.208,-0.305 0.532,-0.51 0.896,-0.566 0.067,-0.01 0.135,-0.016 0.201,-0.016 0.297,0 0.588,0.1 0.824,0.287 0.246,0.194 6.017,4.83 5.213,10.242 C 8.258,-4.877 5.309,-2.085 0,0"
             style="fill:#26356e;fill-opacity:1;fill-rule:nonzero;stroke:none"
             id="path92" />
        </g>
        <g
           id="g94"
           transform="translate(121.8801,269.5446)">
          <path
             d="m 0,0 c 0.12,0 0.24,0.016 0.358,0.049 0.437,0.123 0.781,0.46 0.912,0.893 1.829,6.036 5.533,12.922 5.57,12.991 0.177,0.328 0.208,0.715 0.085,1.067 -0.122,0.352 -0.387,0.636 -0.73,0.783 l -18.53,7.942 c -0.39,0.166 -0.838,0.137 -1.203,-0.08 -0.365,-0.218 -0.603,-0.598 -0.641,-1.021 L -15.314,9.991 C -15.365,9.419 -15.042,8.878 -14.513,8.652 -14.43,8.617 -6.137,5.047 -0.885,0.339 -0.639,0.118 -0.323,0 0,0"
             style="fill:#26356e;fill-opacity:1;fill-rule:nonzero;stroke:none"
             id="path96" />
        </g>
        <g
           id="g98"
           transform="translate(93.3503,293.3283)">
          <path
             d="m 0,0 c -0.124,-0.035 -12.457,-3.632 -13.259,-17.654 -0.338,-5.907 2.253,-10.876 7.49,-14.368 3.855,-2.569 7.765,-3.42 7.929,-3.455 0.092,-0.02 0.184,-0.029 0.276,-0.029 0.315,0 0.624,0.113 0.868,0.322 0.314,0.272 0.483,0.675 0.457,1.089 L 1.68,-1.194 C 1.655,-0.796 1.451,-0.428 1.125,-0.197 0.798,0.035 0.385,0.108 0,0"
             style="fill:#26356e;fill-opacity:1;fill-rule:nonzero;stroke:none"
             id="path100" />
        </g>
        <g
           id="g102"
           transform="translate(170.7308,269.2132)">
          <path
             d="m 0,0 c 1.752,-2.189 3.347,-4.316 4.817,-6.35 -2.064,-1.564 -4.098,-3.331 -6.115,-5.301 -1.47,2.049 -3.081,4.191 -4.833,6.412 -10.354,13.059 -25.727,28.511 -46.325,39.162 -5.333,2.753 -11.167,4.176 -16.954,4.176 -2.237,0 -4.457,-0.219 -6.647,-0.641 -7.585,-1.486 -14.091,-5.317 -19.362,-11.355 -5.803,-6.647 -8.273,-15.436 -6.788,-24.117 1.455,-8.46 6.538,-15.718 13.951,-19.893 0.25,-0.157 0.516,-0.297 0.766,-0.439 4.833,-2.565 9.181,-4.081 13.779,-5.693 11.339,-3.972 22.975,-8.054 40.57,-28.12 2.08,-2.362 4.223,-4.942 6.459,-7.773 -0.406,-2.205 -0.734,-4.426 -0.985,-6.678 l -0.5,-4.41 c -2.425,3.252 -4.739,6.208 -6.945,8.899 -18.455,22.568 -29.574,26.462 -41.242,30.56 -4.677,1.642 -9.509,3.331 -14.873,6.193 -0.329,0.172 -0.642,0.344 -0.955,0.532 -9.493,5.349 -16.015,14.639 -17.86,25.462 -1.908,11.057 1.235,22.255 8.617,30.701 6.459,7.413 14.483,12.105 23.836,13.935 9.587,1.893 19.815,0.376 28.793,-4.27 C -26.963,29.701 -10.838,13.638 0,0"
             style="fill:#26356e;fill-opacity:1;fill-rule:nonzero;stroke:none"
             id="path104" />
        </g>
        <g
           id="g106"
           transform="translate(200.5093,207.5768)">
          <path
             d="m 0,0 c -1.908,-1.142 -3.879,-2.222 -5.912,-3.207 -0.484,-0.234 -0.954,-0.469 -1.423,-0.703 -0.548,2.831 -1.157,5.505 -1.798,8.007 2.517,1.236 4.91,2.597 7.178,4.067 C -1.267,5.614 -0.61,2.893 0,0"
             style="fill:#26356e;fill-opacity:1;fill-rule:nonzero;stroke:none"
             id="path108" />
        </g>
        <g
           id="g110"
           transform="translate(203.9657,172.4183)">
          <path
             d="m 0,0 c -0.094,-19.269 -3.362,-42.635 -13.153,-68.832 -0.579,-1.564 -2.08,-2.58 -3.723,-2.58 -0.171,0 -0.328,0.015 -0.5,0.031 -1.829,0.235 -3.269,1.689 -3.456,3.519 -2.753,25.478 -19.409,58.321 -28.903,75.322 -1.58,2.83 -2.956,5.208 -4.035,7.054 2.049,1.798 4.098,3.472 6.24,5.066 1.001,-1.657 2.299,-3.847 3.801,-6.505 0.078,-0.142 0.156,-0.282 0.234,-0.423 1.455,-2.58 3.113,-5.567 4.88,-8.883 7.804,-14.67 17.736,-35.628 22.819,-55.428 5.63,19.05 7.695,36.206 7.836,50.892 C -5.427,-0.673 -2.768,-0.422 0,0"
             style="fill:#26356e;fill-opacity:1;fill-rule:nonzero;stroke:none"
             id="path112" />
        </g>
        <g
           id="g114"
           transform="translate(148.7402,353.9032)">
          <path
             d="m 0,0 c -1.063,-2.253 -3.101,-5.488 -6.9,-8.688 -0.933,-0.785 -1.455,-1.954 -1.415,-3.173 0.04,-1.219 0.636,-2.352 1.617,-3.076 5.035,-3.71 10.183,-4.233 14.085,-3.826 -0.792,-7.541 -1.047,-20.471 4.556,-30.174 8.319,-14.404 10.775,-23.301 10.797,-23.382 0.312,-1.17 1.141,-2.135 2.251,-2.622 1.11,-0.486 2.382,-0.438 3.454,0.127 0.134,0.07 13.508,7.071 24.052,8.244 7.55,0.846 12.725,-2.372 17.291,-5.203 1.456,-0.905 2.831,-1.757 4.234,-2.458 1.045,-0.522 2.873,-1.115 4.867,-1.115 1.185,0 2.43,0.209 3.602,0.768 2.043,0.973 3.457,2.807 3.981,5.164 1.304,5.868 -5.36,11.397 -7.434,12.953 -1.759,1.317 -4.254,0.963 -5.573,-0.797 -1.319,-1.758 -0.962,-4.254 0.796,-5.573 1.757,-1.317 3.627,-3.357 4.227,-4.529 -0.326,0.046 -0.685,0.14 -0.905,0.25 -1.076,0.539 -2.301,1.298 -3.598,2.102 -5.099,3.162 -12.081,7.483 -22.368,6.351 -8.233,-0.916 -17.476,-4.682 -22.704,-7.082 -1.611,4.29 -4.684,11.449 -10.075,20.783 -6.685,11.577 -2.784,30.51 -2.745,30.697 0.32,1.495 -0.247,3.041 -1.456,3.978 -1.21,0.938 -2.849,1.097 -4.217,0.413 -0.048,-0.022 -3.628,-1.767 -7.966,-0.737 5.35,6.227 6.407,11.884 6.458,12.173 0.33,1.867 -0.705,3.708 -2.471,4.399 -3.143,1.229 -6.308,2.7 -8.833,4.056 5.693,1.217 11.148,3.005 12.035,3.301 1.342,0.447 2.346,1.574 2.636,2.96 0.291,1.384 -0.176,2.82 -1.226,3.769 -1.13,1.023 -2.249,2.139 -3.269,3.243 8.272,-1.457 13.386,0.095 13.671,0.184 1.971,0.623 3.137,2.648 2.686,4.666 -0.051,0.228 -0.948,4.23 -2.252,9.196 14.337,-2.556 17.707,-7.809 17.716,-9.837 -10e-4,0.128 0.014,0.196 0.014,0.196 l 7.916,-0.849 c 0.074,0.687 0.274,4.31 -2.994,8.352 -4.677,5.783 -13.992,9.442 -27.687,10.872 -1.32,0.135 -2.621,-0.391 -3.471,-1.41 -0.849,-1.018 -1.136,-2.393 -0.763,-3.667 1.085,-3.714 2.065,-7.55 2.751,-10.357 -3.142,-0.082 -8.128,0.361 -14.413,2.875 -1.081,0.432 -2.298,0.371 -3.329,-0.172 -1.032,-0.542 -1.774,-1.507 -2.032,-2.643 -0.796,-3.513 1.826,-7.806 5.256,-11.688 -4.082,-1.097 -8.919,-2.173 -11.974,-2.173 -1.719,0 -3.243,-1.103 -3.78,-2.735 C -15.528,12.204 -17.129,7.346 0,0"
             style="fill:#e30613;fill-opacity:1;fill-rule:nonzero;stroke:none"
             id="path116" />
        </g>
        <g
           id="g118"
           transform="translate(185.9179,357.7803)">
          <path
             d="m 0,0 c -0.144,0.128 -3.585,3.067 -9.237,0.846 -0.059,-0.023 -0.117,-0.05 -0.172,-0.082 -4.594,-2.624 -2.741,-8.803 -2.66,-9.065 0.175,-0.564 0.695,-0.935 1.267,-0.935 0.082,0 0.167,0.008 0.251,0.025 0.414,0.079 10.16,2.02 10.99,8.033 C 0.499,-0.737 0.335,-0.293 0,0"
             style="fill:#e30613;fill-opacity:1;fill-rule:nonzero;stroke:none"
             id="path120" />
        </g>
        <g
           id="g122"
           transform="translate(191.2926,354.8188)">
          <path
             d="m 0,0 c 1.297,-2.863 3.261,-4.563 5.835,-5.052 0.5,-0.094 1.009,-0.139 1.524,-0.139 6.591,0 14.107,7.215 14.448,7.545 0.373,0.362 0.501,0.908 0.326,1.397 -0.174,0.489 -0.617,0.833 -1.135,0.878 L 9.133,5.66 9.625,21.066 c 0.016,0.51 -0.262,0.986 -0.716,1.221 -0.453,0.235 -1,0.189 -1.409,-0.119 C 7.369,22.069 -5.515,12.171 0,0"
             style="fill:#e30613;fill-opacity:1;fill-rule:nonzero;stroke:none"
             id="path124" />
        </g>
        <g
           id="g126"
           transform="translate(195.6073,315.3082)">
          <path
             d="m 0,0 c 1.375,0 2.616,0.212 3.567,0.503 2.401,0.734 5.185,3.533 5.991,8.129 0.864,4.927 -0.412,9.163 -3.414,11.333 -2.528,1.826 -3.616,4.367 -4.669,6.824 -1.523,3.555 -3.097,7.229 -8.904,6.612 C -7.904,33.35 -8.315,33.049 -8.506,32.61 -8.823,31.882 -16.194,14.658 -9.969,5.292 -7.236,1.18 -3.243,0 0,0"
             style="fill:#e30613;fill-opacity:1;fill-rule:nonzero;stroke:none"
             id="path128" />
        </g>
        <g
           id="g130"
           transform="translate(246.888,243.6135)">
          <path
             d="m 0,0 c 0.054,-0.002 0.109,-0.002 0.163,-0.002 1.52,0 2.933,0.637 3.996,1.803 1.303,1.433 2.705,4.356 1.983,10.147 -0.53,4.246 -1.779,7.108 -3.712,8.503 -1.062,0.764 -2.284,1.033 -3.537,0.788 C -3.458,20.771 -7.248,18.698 -6.226,10.085 -5.477,3.773 -3.207,0.096 0,0"
             style="fill:#e30613;fill-opacity:1;fill-rule:nonzero;stroke:none"
             id="path132" />
        </g>
        <g
           id="g134"
           transform="translate(199.5005,197.0496)">
          <path
             d="m 0,0 c -6.194,-1.431 -9.602,-4.087 -9.348,-7.285 0.004,-0.055 0.009,-0.109 0.015,-0.163 0.165,-1.511 0.953,-2.847 2.228,-3.776 1.566,-1.14 4.625,-2.215 10.302,-0.868 4.164,0.988 6.872,2.542 8.048,4.615 0.645,1.139 0.779,2.383 0.4,3.601 C 10.923,-1.59 8.451,1.953 0,0"
             style="fill:#e30613;fill-opacity:1;fill-rule:nonzero;stroke:none"
             id="path136" />
        </g>
        <g
           id="g138"
           transform="translate(230.2404,218.892)">
          <path
             d="m 0,0 c -1.788,-2.781 -5.555,-9.537 -1.94,-12.206 0.99,-0.731 2.212,-1.012 3.552,-0.82 0.109,0.016 0.218,0.034 0.328,0.057 2.909,0.576 6,3.26 8.463,7.339 1.615,2.536 4.161,7.256 3.063,10.364 C 13.062,5.877 12.22,6.694 11.03,7.094 8.605,7.909 4.722,7.343 0,0"
             style="fill:#e30613;fill-opacity:1;fill-rule:nonzero;stroke:none"
             id="path140" />
        </g>
        <g
           id="g142"
           transform="translate(164.6001,263.9744)">
          <path
             d="M 0,0 C -1.658,-1.596 -3.3,-3.285 -4.926,-5.083 -15.593,-16.954 -23.1,-31.218 -27.01,-46.92 c 2.08,-2.362 4.223,-4.942 6.459,-7.773 3.081,16.75 10.448,31.953 21.536,44.277 1.267,1.423 2.55,2.752 3.848,4.003 C 3.362,-4.364 1.752,-2.221 0,0 m -14.404,-77.043 c -3.3,-2.877 -6.553,-6.084 -10.01,-9.821 l 2.378,21.082 0.5,4.411 c 0.25,2.252 0.579,4.472 0.985,6.678 3.081,16.75 10.448,31.953 21.536,44.277 1.267,1.423 2.55,2.752 3.848,4.003 2.017,1.971 4.05,3.738 6.115,5.302 8.211,6.272 16.75,9.431 25.509,9.431 0.297,0 0.594,0 0.891,-0.016 7.601,-0.187 14.608,-4.207 18.268,-10.478 2.502,-4.317 2.69,-11.167 0.5,-18.346 -3.284,-10.792 -11.198,-20.597 -22.162,-27.714 -2.268,-1.47 -4.66,-2.831 -7.178,-4.067 -0.079,-0.046 -0.172,-0.077 -0.251,-0.125 -15.655,-7.601 -25.821,-12.933 -34.689,-19.55 -2.142,-1.594 -4.191,-3.268 -6.24,-5.067 M 84.972,29.669 C 71.052,49.328 53.661,61.293 52.926,61.793 51.111,63.029 48.64,62.575 47.389,60.76 46.153,58.947 46.623,56.46 48.437,55.224 48.609,55.115 65.516,43.431 78.606,24.899 95.716,0.672 98.578,-23.367 87.099,-46.561 75.166,-67.815 59.088,-80.217 39.241,-83.518 c -2.581,-0.453 -5.224,-0.719 -7.93,-0.844 -0.062,-0.016 -0.125,-0.016 -0.188,-0.016 -0.954,-0.047 -1.892,-0.062 -2.83,-0.062 -16.547,0 -29.247,5.849 -29.388,5.911 -0.657,0.313 -1.361,0.423 -2.049,0.36 8.086,5.99 17.408,10.901 31.718,17.861 0.469,0.235 0.939,0.469 1.423,0.704 2.034,0.985 4.004,2.065 5.912,3.206 13.763,8.227 23.742,20.191 27.824,33.564 2.862,9.384 2.408,18.376 -1.236,24.664 C 57.445,10.478 47.89,16.015 37.551,16.265 26.604,16.546 16.078,12.84 6.131,5.239 4.067,3.66 2.018,1.908 0,0 -1.658,-1.596 -3.3,-3.285 -4.926,-5.083 -15.593,-16.954 -23.1,-31.218 -27.01,-46.92 c -0.813,-3.253 -1.47,-6.585 -1.971,-9.963 -0.172,-1.189 -0.328,-2.393 -0.469,-3.597 l -4.301,-38.13 c -0.188,-1.752 0.782,-3.41 2.393,-4.113 0.5,-0.203 1.032,-0.313 1.564,-0.313 1.157,0 2.284,0.501 3.05,1.423 6.162,7.366 11.261,12.887 16.375,17.516 1.266,1.158 2.549,2.253 3.832,3.285 0.797,0.657 1.595,1.283 2.408,1.908 1.455,-2.58 3.113,-5.568 4.88,-8.883 5.693,-1.955 15.593,-4.614 27.401,-4.614 0.97,0 1.97,0.016 2.971,0.063 0.094,0 0.188,0 0.282,0.015 2.534,0.094 5.192,0.345 7.961,0.767 17.329,2.674 38.646,12.512 54.724,41.179 0.031,0.063 0.062,0.125 0.094,0.188 12.778,25.728 9.587,53.348 -9.212,79.858 M 0,0 C -1.658,-1.596 -3.3,-3.285 -4.926,-5.083 -15.593,-16.954 -23.1,-31.218 -27.01,-46.92 c 2.08,-2.362 4.223,-4.942 6.459,-7.773 3.081,16.75 10.448,31.953 21.536,44.277 1.267,1.423 2.55,2.752 3.848,4.003 C 3.362,-4.364 1.752,-2.221 0,0"
             style="fill:#e30613;fill-opacity:1;fill-rule:nonzero;stroke:none"
             id="path144" />
        </g>
      </g>
    </g>
  </g>
</svg>
